<?xml version="1.0" encoding="utf-8"?>
<!-- Generator: Adobe Illustrator 27.0.0, SVG Export Plug-In . SVG Version: 6.00 Build 0)  -->
<svg version="1.1" id="图层_1" xmlns="http://www.w3.org/2000/svg" xmlns:xlink="http://www.w3.org/1999/xlink" x="0px" y="0px"
	 viewBox="0 0 64 64" style="enable-background:new 0 0 64 64;" xml:space="preserve">
<style type="text/css">
	.st0{fill:#4E6EF1;}
</style>
<path class="st0" d="M63.62,24.3c0-5.77-4.69-10.46-10.46-10.46H0.44v15.37v5.54v15.37h52.73c5.77,0,10.46-4.69,10.46-10.46
	c0-3.04-1.31-5.77-3.39-7.69C62.31,30.08,63.62,27.34,63.62,24.3z M16.59,25.25l-6.64,6.64c-0.27,0.27-0.27,0.71,0,0.97l6.64,6.64
	h7.84l-4.74-4.74h7.2h26.27c2.71,0,4.92,2.21,4.92,4.92c0,2.71-2.21,4.92-4.92,4.92H5.98v-9.83v-5.54v-9.83h47.19
	c2.71,0,4.92,2.21,4.92,4.92s-2.21,4.92-4.92,4.92H26.89h-6.43l3.97-3.97H16.59z"/>
</svg>
