<?xml version="1.0" encoding="utf-8"?>
<!-- Generator: Adobe Illustrator 27.0.0, SVG Export Plug-In . SVG Version: 6.00 Build 0)  -->
<svg version="1.1" id="图层_1" xmlns="http://www.w3.org/2000/svg" xmlns:xlink="http://www.w3.org/1999/xlink" x="0px" y="0px"
	 viewBox="0 0 64 64" style="enable-background:new 0 0 64 64;" xml:space="preserve">
<style type="text/css">
	.st0{fill:#4E6EF1;}
</style>
<path class="st0" d="M27.73,28.7c0-2.47-2.01-4.48-4.48-4.48H0.68v6.58v2.37v6.58h22.57c2.47,0,4.48-2.01,4.48-4.48
	c0-1.3-0.56-2.47-1.45-3.29C27.17,31.17,27.73,30,27.73,28.7z M7.6,29.1l-2.84,2.84c-0.12,0.12-0.12,0.3,0,0.42L7.6,35.2h3.35
	l-2.03-2.03H12h11.25c1.16,0,2.1,0.94,2.1,2.1c0,1.16-0.94,2.1-2.1,2.1H3.05v-4.21V30.8v-4.21h20.2c1.16,0,2.1,0.94,2.1,2.1
	c0,1.16-0.94,2.1-2.1,2.1H12H9.25l1.7-1.7H7.6z"/>
<g>
	<path class="st0" d="M50.52,30.78h5.06l7.26-3.85c0.48-0.26,0.73-0.81,0.59-1.33c-0.13-0.53-0.61-0.9-1.15-0.9H37.22v2.37h20.29
		L50.52,30.78z"/>
	<path class="st0" d="M51.11,33.15h-5.06l-8.19,4.34c-0.48,0.26-0.73,0.81-0.59,1.33c0.13,0.53,0.61,0.9,1.15,0.9h25.06v-2.37H43.18
		L51.11,33.15z"/>
</g>
<g>
	<rect x="31.6" y="33.15" class="st0" width="2.37" height="6.61"/>
	<rect x="31.6" y="24.22" class="st0" width="2.37" height="6.56"/>
</g>
</svg>
