<?xml version="1.0" encoding="utf-8"?>
<!-- Generator: Adobe Illustrator 27.0.0, SVG Export Plug-In . SVG Version: 6.00 Build 0)  -->
<svg version="1.1" id="图层_1" xmlns="http://www.w3.org/2000/svg" xmlns:xlink="http://www.w3.org/1999/xlink" x="0px" y="0px"
	 viewBox="0 0 270 22" style="enable-background:new 0 0 270 22;" xml:space="preserve">
<style type="text/css">
	.st0{fill:#4E6EF1;}
	.st1{fill:#313450;}
</style>
<g>
	<g>
		<path class="st0" d="M28.01,0.59H0.26v20.85h27.75c3.47,0,6.29-2.82,6.29-6.29c0-1.52-0.57-3-1.57-4.14
			c1-1.14,1.57-2.62,1.57-4.14C34.29,3.41,31.47,0.59,28.01,0.59z M10.91,7.38l-3.58,3.58c-0.14,0.14-0.14,0.38,0,0.52l3.58,3.58
			h4.22l-1.9-1.9h14.77c1.1,0,2,0.9,2,2s-0.9,2-2,2H4.55V4.88h23.46c1.1,0,2,0.9,2,2s-0.9,2-2,2H13.65l1.49-1.49H10.91z"/>
		<path class="st0" d="M60.07,9.71h8.28l8.46-4.49c0.87-0.46,1.31-1.45,1.08-2.41c-0.24-0.96-1.09-1.63-2.08-1.63H44.93v4.29h21.95
			L60.07,9.71z"/>
		<path class="st0" d="M55.7,17.12l9.05-4.8h-9.15l-9.52,5.05c-0.87,0.46-1.31,1.46-1.07,2.41s1.09,1.63,2.08,1.63h30.88v-4.29H55.7
			z"/>
		<rect x="37.86" y="12.32" class="st0" width="4.29" height="9.12"/>
		<rect x="37.86" y="0.59" class="st0" width="4.29" height="9.12"/>
	</g>
	<g>
		<rect x="81.59" y="0.59" class="st1" width="4.29" height="9.12"/>
		<rect x="81.59" y="12.32" class="st1" width="4.29" height="9.12"/>
		<polygon class="st1" points="209.93,12.32 200,12.32 200,21.44 204.29,21.44 204.29,15.35 229.08,21.42 234.17,21.44 
			234.17,17.15 229.68,17.15 		"/>
		<polygon class="st1" points="229.68,5.55 234.17,5.55 234.17,1.26 229.16,1.26 204.29,7.35 204.29,0.59 200,0.59 200,9.71 
			212.67,9.71 		"/>
		<path class="st1" d="M103.15,4.38c-2.78-2.52-6.38-3.79-10.69-3.79h-2.14v9.12h4.29v-4.7c2.29,0.3,4.06,1.1,5.67,2.55l2.38,2.15
			h6.39L103.15,4.38z"/>
		<rect x="119.94" y="0.59" class="st1" width="4.29" height="9.12"/>
		<rect x="90.32" y="12.32" class="st1" width="4.29" height="9.12"/>
		<path class="st1" d="M119.94,17.02c-2.29-0.3-4.05-1.1-5.65-2.55l-2.37-2.15h-6.39l5.89,5.33c2.74,2.48,6.43,3.79,10.67,3.79h2.14
			v-9.12h-4.29V17.02z"/>
		<path class="st1" d="M191.79,0.72h-23.24c-3.3,0-5.99,2.69-5.99,5.99v3h4.29v-3c0-0.94,0.76-1.7,1.7-1.7h23.24
			c0.94,0,1.7,0.76,1.7,1.7v3h4.29v-3C197.78,3.41,195.09,0.72,191.79,0.72z"/>
		<path class="st1" d="M193.49,15.26c0,0.94-0.76,1.7-1.7,1.7h-23.24c-0.94,0-1.7-0.76-1.7-1.7v-2.94h-4.29v2.94
			c0,3.3,2.69,5.99,5.99,5.99h23.24c3.3,0,5.99-2.69,5.99-5.99v-2.94h-4.29V15.26z"/>
		<polygon class="st1" points="157.89,0.97 150.66,9.71 156.22,9.71 163.46,0.97 		"/>
		<polygon class="st1" points="130.72,0.97 125.15,0.97 132.38,9.71 137.95,9.71 		"/>
		<path class="st1" d="M144.37,17.31c-0.04,0.01-0.09,0.01-0.13,0l-4.13-4.99h-5.57l6.45,7.8c0.79,0.95,1.99,1.5,3.31,1.5
			c1.31,0,2.52-0.55,3.31-1.5l6.45-7.8h-5.57L144.37,17.31z"/>
		<path class="st1" d="M248.06,0.59c-4.44,0-8.57,1.73-11.06,4.63l-0.29,0.34h7.28c1.26-0.45,2.64-0.68,4.07-0.68h21.35V0.59H248.06
			z"/>
		<path class="st1" d="M243.98,16.47h-7.27l0.29,0.34c2.48,2.9,6.62,4.63,11.06,4.63h21.35v-4.29h-21.35
			C246.62,17.15,245.24,16.92,243.98,16.47z"/>
		<path class="st1" d="M240.3,7.18h-4.22l-3.58,3.58c-0.14,0.14-0.14,0.38,0,0.52l3.58,3.58h4.22l-1.69-1.69h30.81V8.87H238.6
			L240.3,7.18z"/>
	</g>
</g>
</svg>
